<?xml version="1.0" encoding="UTF-8"?>
<svg width="780mm" height="120mm" version="1.1" viewBox="0 0 780 120" xmlns="http://www.w3.org/2000/svg">
 <g transform="translate(.91463 5.015)">
  <path d="m52.259 2.7125c-7.2771 2.08e-4 -14.872 4.3991-18.836 10.453-0.78046 1.192-1.3319 2.6423-1.7203 4.222h2.1125c0.32881-1.237 0.75019-2.317 1.2816-3.1285 3.5555-5.4304 10.712-9.5467 17.162-9.5467s13.609 4.1163 17.164 9.5467c0.53131 0.81151 0.95254 1.8917 1.2811 3.1285h2.112c-0.38805-1.5796-0.9388-3.0301-1.7193-4.222-3.9639-6.0543-11.561-10.453-18.838-10.453z" fill="#e6e9f0" stroke="#622b83" stroke-width=".265"/>
  <g stroke-width=".55346">
   <path d="m23 27.388-8 1e-6 8-10z" fill="#693088" stop-color="#000000"/>
   <path d="m87 27.388 8 1e-6 -8-10z" fill="#693088" stop-color="#000000"/>
   <path d="m23 17.388 64 1e-6 -64 10z" fill="#7e4e99" stop-color="#000000"/>
   <path d="m87 27.388-64-1e-6 64-10z" fill="#936dab" stop-color="#000000"/>
   <path d="m15 27.388 5-1e-6 -5 70-10 10z" fill="#b196c3" stop-color="#000000"/>
   <path d="m105 107.39h-100l10-10h80z" fill="#936dab" stop-color="#000000"/>
   <path d="m95 27.388 10 80-10-10-5-70z" fill="#7e4e99" stop-color="#000000"/>
   <path d="m20 27.388h70l-75 70z" fill="#cfc0da" stop-color="#000000"/>
   <path d="m95 97.388h-80l75-70z" fill="#b196c3" stop-color="#000000"/>
  </g>
  <g transform="translate(-75.732,-103.53)">
   <circle cx="130.66" cy="165.92" r="30" fill="#4e6a99" stop-color="#000000"/>
   <path d="m112.05 142.4a30 30 0 0 0-3.4463 3.1967l13.647 0.0279z" fill="#6a994e" stop-color="#000000"/>
   <path d="m130.1 135.94a30 30 0 0 0-1.6076 0.0605l-6.2399 9.6211 2.9781 6.7484z" fill="#6a994e" stop-color="#000000"/>
   <path d="m139.26 163.02-22.962 29.214a30 30 0 0 0 14.365 3.6835 30 30 0 0 0 2.3632-0.0977z" fill="#598545" stop-color="#000000"/>
   <path d="m131.92 135.95-6.6926 16.423 17.02-13.138-0.97978-1.3761a30 30 0 0 0-9.3472-1.9089z" fill="#3d6234" stop-color="#000000"/>
   <path d="m111.74 158.18 27.521 4.8492-28.253 23.447z" fill="#6a994e" fill-opacity=".99455" stop-color="#000000" stroke-width=".55346"/>
   <path d="m125.23 152.37 14.032 10.652-27.521-4.8492z" fill="#7cad59" stop-color="#000000" stroke-width=".55346"/>
   <path d="m128.49 136a30 30 0 0 0-3.745 0.52762l-2.4955 9.094z" fill="#7cad59" stop-color="#000000"/>
   <g stroke-width=".55346">
    <g fill="#6a994e">
     <path d="m143.15 148.99 16.274 13.216-20.161 0.81641z" stop-color="#000000"/>
     <path d="m142.25 139.24 13.017 6.2862-12.117 3.4711z" stop-color="#000000"/>
     <path d="m147.07 139.55 4.787 1.6064 3.4061 4.3612z" stop-color="#000000"/>
    </g>
    <path d="m125.23 152.37 17.019-13.137 0.9003 9.7573z" fill="#598545" stop-color="#000000"/>
    <path d="m155.27 145.52 4.1571 16.687-16.274-13.216z" fill="#7cad59" stop-color="#000000"/>
    <path d="m147.07 139.55 8.1931 5.9676-13.017-6.2862z" fill="#7cad59" stop-color="#000000"/>
    <path d="m160.8 156.59-1.3761 5.6194-4.1571-16.687z" fill="#8abd61" fill-opacity=".99728" stop-color="#000000"/>
   </g>
   <path d="m124.75 136.53a30 30 0 0 0-3.052 0.76843l0.55656 8.3256z" fill="#8abd60" fill-opacity=".99608" stop-color="#000000"/>
   <path d="m139.26 163.02 0.8692 31.346a30 30 0 0 0 4.1186-1.7203z" fill="#7cad59" stop-color="#000000"/>
  </g>
  <path d="m55.434 5.8875c-7.2773 0-14.872 4.3988-18.836 10.453-2.1657 3.3078-2.575 8.5989-2.5977 13.148-0.02264 4.5495 0.44141 8.3535 0.44141 8.3535a1 1 0 0 0 1.1133 0.87109 1 1 0 0 0 0.87109-1.1133s-0.44772-3.6931-0.42578-8.1016c0.02194-4.4084 0.61555-9.5353 2.2715-12.064 3.5555-5.4304 10.712-9.5469 17.162-9.5469s13.609 4.1164 17.164 9.5469c1.6559 2.5292 2.2476 7.656 2.2695 12.064 0.02194 4.4084-0.42578 8.1016-0.42578 8.1016a1 1 0 0 0 0.87109 1.1133 1 1 0 0 0 1.1133-0.87109s0.46405-3.804 0.44141-8.3535-0.42998-9.8407-2.5957-13.148c-3.964-6.0544-11.561-10.453-18.838-10.453z" color="#000000" fill="#e6e9f0" stroke="#622b83" stroke-linecap="round" stroke-width=".2"/>
 </g>
 <g fill="#6a994e" stroke-width=".48867" aria-label="GeoData">
  <path d="m153.08 69.644v-3.0691h29.738v28.68q-9.313 5.8207-20.954 5.8207h-1.1641q-10.9 0-20.319-5.7148-9.4189-5.7148-14.922-15.134-5.3973-9.5247-5.3973-20.214 0-16.827 12.17-28.892 12.17-12.17 29.103-12.17 11.324 0 21.483 5.9265v3.9157q-9.948-6.7731-21.483-6.7731-15.557 0-26.669 11.218-11.112 11.112-11.112 26.775 0 15.557 11.112 26.775 11.112 11.218 26.669 11.218 8.6781 0 17.991-4.4449v-23.918z"/>
  <path d="m218.8 101.18h-0.95247q-10.054 0-17.568-7.5139-7.4081-7.6198-7.4081-17.674t7.4081-17.356q7.4081-7.4081 18.309-7.4081t18.732 8.6781l-33.231 32.807q6.879 5.5032 13.229 5.5032t11.324-2.8574q5.0798-2.9632 8.3606-7.8314v5.3973q-7.5139 8.2547-18.203 8.2547zm-1.1641-46.989q-8.3606 0-14.922 6.5615-6.4556 6.4556-6.4556 14.922t5.609 14.816l30.797-30.585q-6.5615-5.7148-15.028-5.7148z"/>
  <path d="m269.49 101.08q-10.16 0-17.462-7.5139-7.3023-7.6198-7.3023-17.674t7.4081-17.356q7.4081-7.4081 17.779-7.4081 10.477 0 17.779 7.4081 7.4081 7.3023 7.4081 17.462 0 10.054-7.1964 17.568-7.1964 7.5139-17.462 7.5139zm22.224-24.87q0-8.9956-6.4556-15.557-6.3498-6.5615-15.24-6.5615t-15.451 6.6673q-6.4556 6.5615-6.4556 15.451t6.4556 15.451q6.5615 6.4556 15.451 6.4556 8.9956 0 15.345-6.4556 6.3498-6.5615 6.3498-15.451z"/>
  <path d="m306.74 20.539h3.3866q17.779 0 28.68 11.747 10.9 11.641 10.9 28.045 0 16.298-10.9 27.939-10.795 11.641-28.68 11.641h-3.3866zm4.2332 3.1749h-0.84664v72.917h0.84664q15.451 0 25.293-10.689 9.948-10.689 9.948-25.611 0-15.028-9.948-25.823-9.8422-10.795-25.293-10.795z"/>
  <path d="m408.34 52.288v47.624h-3.3866v-11.853q-2.9632 6.0323-8.8897 9.5247-5.9265 3.4924-12.7 3.4924-10.371 0-17.779-7.3023-7.4081-7.4081-7.4081-17.674t7.4081-17.568q7.4081-7.4081 17.779-7.4081 6.7731 0 12.911 3.5982 6.244 3.5982 8.6781 9.5247v-11.959zm-46.777 23.918q0 8.8897 6.4556 15.451 6.5615 6.4556 15.451 6.4556 8.9956 0 15.345-6.4556 6.3498-6.5615 6.3498-15.451 0-8.9956-6.4556-15.557-6.3498-6.5615-15.24-6.5615t-15.451 6.6673q-6.4556 6.5615-6.4556 15.451z"/>
  <path d="m438.08 97.583v2.9632q-7.5139 0-12.805-4.974-5.2915-5.0798-5.2915-12.911v-49.528h3.3866v19.261h14.605v2.9632h-14.605v27.304q0 6.4556 4.2332 10.689 4.339 4.2332 10.477 4.2332z"/>
  <path d="m494.06 52.288v47.624h-3.3866v-11.853q-2.9632 6.0323-8.8897 9.5247-5.9265 3.4924-12.7 3.4924-10.371 0-17.779-7.3023-7.4081-7.4081-7.4081-17.674t7.4081-17.568q7.4081-7.4081 17.779-7.4081 6.7731 0 12.911 3.5982 6.244 3.5982 8.6781 9.5247v-11.959zm-46.777 23.918q0 8.8897 6.4556 15.451 6.5615 6.4556 15.451 6.4556 8.9956 0 15.345-6.4556 6.3498-6.5615 6.3498-15.451 0-8.9956-6.4556-15.557-6.3498-6.5615-15.24-6.5615t-15.451 6.6673q-6.4556 6.5615-6.4556 15.451z"/>
 </g>
 <g fill="#4e6a99" stroke-width=".48868" aria-label="Mart">
  <path d="m518.72 101.18q-3.9157 0-5.609-1.6933-1.6933-1.7991-1.6933-6.6673 0-3.2807 0.63498-8.3606 0.74081-5.1857 2.3283-14.181 2.7516-16.615 4.339-28.786 0.95247-7.6198 0.95247-12.7 0-4.7624-3.4924-4.7624-2.7516 0-6.6673 2.8574-3.8099 2.7516-8.4664 8.8897-1.4816 2.0108-3.2807 2.0108-1.4816 0-2.6458-1.3758-1.0583-1.4816-1.0583-3.2807 0-1.6933 0.63498-3.3866 0.74081-1.7991 2.3283-4.0215 5.0798-7.0906 11.324-10.9 6.244-3.9157 12.488-3.9157 5.8206 0 8.8897 3.704 3.1749 3.704 3.1749 10.795 0 2.8574-0.52915 6.7731-0.52915 3.8099-0.95247 6.244t-0.63498 3.3866q6.0323-17.25 13.546-24.023 7.5139-6.879 16.509-6.879 6.879 0 10.795 4.8682 4.0215 4.8682 4.0215 13.758 0 3.4924-0.95247 8.6781 5.2915-14.605 12.382-20.954t16.298-6.3498q7.4081 0 11.324 4.7624 4.0215 4.7624 4.0215 13.335 0 4.6565-1.3758 11.324l-6.4556 30.267q-1.0583 5.2915-1.0583 9.1014 0 4.4449 2.0108 6.6673 2.1166 2.2224 5.8206 2.2224 3.4924 0 6.7731-2.3283 3.3866-2.3283 7.9372-7.7256 1.27-1.4816 2.8574-1.4816 1.3758 0 2.1166 1.27 0.84664 1.27 0.84664 3.4924 0 4.1274-2.0108 6.5615-5.5032 6.6673-10.9 9.7364-5.3973 3.0691-11.324 3.0691-8.9956 0-14.075-5.2915-5.0798-5.3973-5.0798-14.393 0-6.244 2.5399-18.097l4.2332-19.367q0.21166-0.95247 0.74081-3.3866t0.84664-4.5507q0.31749-2.2224 0.31749-4.339 0-3.704-1.4816-5.5032-1.3758-1.9049-4.0215-1.9049-4.974 0-10.477 6.4556-5.3973 6.3498-10.371 21.166-4.8682 14.816-7.9372 38.522-0.74081 6.3498-2.6458 8.5722-1.7991 2.1166-5.9265 2.1166-3.5982 0-5.2915-1.6933-1.5874-1.6933-1.5874-6.3498 0-4.339 1.1641-11.324 1.1641-7.0906 2.9632-16.615 4.8682-25.611 4.8682-33.019 0-4.0215-1.5874-5.9265-1.4816-1.9049-4.5507-1.9049-5.1857 0-10.689 5.9265-5.5032 5.8206-10.795 20.849-5.1857 14.922-8.6781 40.427-0.74081 5.3973-2.2224 7.5139-1.3758 2.1166-5.5032 2.1166z"/>
  <path d="m642.64 101.18q-6.5615 0-10.477-4.7623-3.9157-4.7624-3.9157-12.488 0-8.4664 3.9157-15.98 3.9157-7.6198 10.371-12.17 6.5615-4.6565 13.864-4.6565 2.3283 0 3.0691 0.95247 0.84664 0.84664 1.3758 3.1749 2.2224-0.42332 4.6565-0.42332 5.1857 0 5.1857 3.704 0 2.2224-1.5874 10.583-2.4341 12.17-2.4341 16.933 0 1.5874 0.74081 2.5399 0.84664 0.95247 2.1166 0.95247 2.0108 0 4.8682-2.5399 2.8574-2.6458 7.7256-8.4664 1.27-1.4816 2.8574-1.4816 1.3758 0 2.1166 1.27 0.84664 1.27 0.84664 3.4924 0 4.2332-2.0108 6.5615-4.339 5.3973-9.2072 9.1014-4.8682 3.704-9.4189 3.704-3.4924 0-6.4556-2.3283-2.8574-2.4341-4.339-6.5615-5.5032 8.8897-13.864 8.8897zm3.8099-10.689q2.3283 0 4.4449-2.7516t3.0691-7.3023l3.9157-19.473q-4.4449 0.10583-8.2547 3.3866-3.704 3.1749-5.9265 8.4664t-2.2224 11.218q0 3.2807 1.27 4.8682 1.3758 1.5874 3.704 1.5874z"/>
  <path d="m722.12 65.834q2.3283 0 3.9157 1.6933 1.6933 1.5874 1.6933 4.0215 0 1.3758-0.63498 2.9632-1.6933 3.9157-4.7624 6.5615t-6.7731 2.6458q-2.9632 0-5.0798-2.1166-2.0108-2.1166-2.0108-5.7148 0-2.0108 0.21166-4.339 0.21166-1.6933 0.21166-2.3283 0-0.84664-0.42332-1.27-0.31749-0.42332-0.84664-0.42332-1.4816 0-4.0215 3.5982-2.5399 3.4924-5.0798 9.313t-4.1274 12.276q-1.1641 5.0798-2.6458 6.7731-1.4816 1.6933-4.8682 1.6933-4.0215 0-5.7148-4.2332-1.5874-4.2332-1.5874-13.546 0-13.758 3.9157-26.14 0.95247-3.0691 3.0691-4.4449 2.2224-1.4816 6.1381-1.4816 2.1166 0 2.9632 0.52915t0.84664 2.0108q0 1.6933-1.5874 7.6198-1.0583 4.2332-1.6933 7.4081t-1.0583 7.8314q3.4924-9.1014 7.8314-14.816 4.339-5.7148 8.4664-8.1489t7.5139-2.4341q3.0691 0 4.6565 1.7991 1.6933 1.6933 1.6933 5.0798 0 2.0108-1.1641 7.6198z"/>
  <path d="m749.22 61.39q-0.21166 5.2915-0.21166 8.2547 0 7.6198 0.74081 11.959 0.84664 4.2332 2.6458 6.1381 1.9049 1.7991 5.1857 1.7991 1.6933 0 4.0215-1.0583t4.2332-2.7516q1.1641-1.0583 2.3283-1.0583 1.27 0 2.0108 1.4816 0.84664 1.3758 0.84664 3.3866t-0.84664 3.9157q-0.74081 1.9049-2.3283 3.1749-5.5032 4.5507-12.488 4.5507-10.054 0-14.71-8.3606-4.6565-8.4664-4.6565-22.013 0-4.6565 0.31749-9.4189h-4.1274q-3.1749 0-4.339-1.1641-1.0583-1.1641-1.0583-3.704 0-5.9265 4.7624-5.9265h6.0323q1.7991-11.641 5.5032-21.272t8.8897-15.345q5.2915-5.7148 11.324-5.7148 4.4449 0 6.9848 3.9157 2.5399 3.9157 2.5399 9.8422 0 16.404-13.758 28.574h11.853q1.6933 0 2.4341 0.74081t0.74081 2.7516q0 7.3023-11.959 7.3023zm11.218-42.967q-1.5874 0-3.5982 4.0215-1.9049 3.9157-3.704 11.006-1.6933 6.9848-2.8574 15.557 6.244-5.3973 9.313-12.065 3.1749-6.7731 3.1749-12.276 0-6.244-2.3283-6.244z"/>
 </g>
</svg>
