<?xml version="1.0" encoding="UTF-8"?>
<svg width="110mm" height="110mm" version="1.1" viewBox="0 0 110 110" xmlns="http://www.w3.org/2000/svg">
 <path d="m52.259 2.7125c-7.2771 2.08e-4 -14.872 4.3991-18.836 10.453-0.78046 1.192-1.3319 2.6423-1.7203 4.222h2.1125c0.32881-1.237 0.75019-2.317 1.2816-3.1285 3.5555-5.4304 10.712-9.5467 17.162-9.5467s13.609 4.1163 17.164 9.5467c0.53131 0.81151 0.95254 1.8917 1.2811 3.1285h2.112c-0.38805-1.5796-0.9388-3.0301-1.7193-4.222-3.9639-6.0543-11.561-10.453-18.838-10.453z" fill="#e6e9f0" stroke="#622b83" stroke-width=".265"/>
 <g stroke-linecap="round" stroke-linejoin="round" stroke-width=".2">
  <path d="m23 27.388-8 1e-6 8-10z" fill="#693088" stop-color="#000000" stroke="#693088"/>
  <path d="m87 27.388 8 1e-6 -8-10z" fill="#693088" stop-color="#000000" stroke="#693088"/>
  <path d="m23 17.388 64 1e-6 -64 10z" fill="#7e4e99" stop-color="#000000" stroke="#7e4e99"/>
  <path d="m87 27.388-64-1e-6 64-10z" fill="#936dab" stop-color="#000000" stroke="#936dab"/>
  <path d="m15 27.388 5-1e-6 -5 70-10 10z" fill="#b196c3" stop-color="#000000" stroke="#b196c3"/>
  <path d="m105 107.39h-100l10-10h80z" fill="#936dab" stop-color="#000000" stroke="#936dab"/>
  <path d="m95 27.388 10 80-10-10-5-70z" fill="#7e4e99" stop-color="#000000" stroke="#7e4e99"/>
  <path d="m20 27.388h70l-75 70z" fill="#cfc0da" stop-color="#000000" stroke="#cfc0da"/>
  <path d="m95 97.388h-80l75-70z" fill="#b196c3" stop-color="#000000" stroke="#b196c3"/>
  <circle cx="54.928" cy="62.39" r="30" fill="#4e6a99" stop-color="#000000" stroke="#4e6a99"/>
  <path d="m36.318 38.87a30 30 0 0 0-3.4463 3.1967l13.647 0.0279z" fill="#6a994e" stop-color="#000000" stroke="#6a994e"/>
  <path d="m54.368 32.41a30 30 0 0 0-1.6076 0.0605l-6.2399 9.6211 2.9781 6.7484z" fill="#6a994e" stop-color="#000000" stroke="#6a994e"/>
  <path d="m63.528 59.49-22.962 29.214a30 30 0 0 0 14.365 3.6835 30 30 0 0 0 2.3632-0.0977z" fill="#598545" stop-color="#000000" stroke="#598545"/>
  <path d="m56.188 32.42-6.6926 16.423 17.02-13.138-0.97978-1.3761a30 30 0 0 0-9.3472-1.9089z" fill="#3d6234" stop-color="#000000" stroke="#3d6234"/>
  <path d="m36.008 54.65 27.521 4.8492-28.253 23.447z" fill="#6a994e" fill-opacity=".99455" stop-color="#000000" stroke="#6a994e"/>
  <path d="m49.498 48.84 14.032 10.652-27.521-4.8492z" fill="#7cad59" stop-color="#000000" stroke="#7cad59"/>
  <path d="m52.758 32.47a30 30 0 0 0-3.745 0.52762l-2.4955 9.094z" fill="#7cad59" stop-color="#000000" stroke="#7cad59"/>
 </g>
 <g fill="#6a994e" stroke="#6a994e" stroke-linecap="round" stroke-linejoin="round" stroke-width=".2">
  <path d="m67.418 45.46 16.274 13.216-20.161 0.81641z" stop-color="#000000"/>
  <path d="m66.518 35.71 13.017 6.2862-12.117 3.4711z" stop-color="#000000"/>
  <path d="m71.338 36.02 4.787 1.6064 3.4061 4.3612z" stop-color="#000000"/>
 </g>
 <g stroke-linecap="round" stroke-linejoin="round" stroke-width=".2">
  <g>
   <path d="m49.498 48.84 17.019-13.137 0.9003 9.7573z" fill="#598545" stop-color="#000000" stroke="#598545"/>
   <path d="m79.538 41.99 4.1571 16.687-16.274-13.216z" fill="#7cad59" stop-color="#000000" stroke="#7cad59"/>
   <path d="m71.338 36.02 8.1931 5.9676-13.017-6.2862z" fill="#7cad59" stop-color="#000000" stroke="#7cad59"/>
  </g>
  <path d="m85.068 53.06-1.3761 5.6194-4.1571-16.687z" fill="#8abd61" fill-opacity=".99728" stop-color="#000000" stroke="#8abd60" stroke-opacity=".99608"/>
  <path d="m49.018 33a30 30 0 0 0-3.052 0.76843l0.55656 8.3256z" fill="#8abd60" fill-opacity=".99608" stop-color="#000000" stroke="#8abd60" stroke-opacity=".99608"/>
  <path d="m63.528 59.49 0.8692 31.346a30 30 0 0 0 4.1186-1.7203z" fill="#7cad59" stop-color="#000000" stroke="#7cad59" style="paint-order:normal"/>
 </g>
 <path d="m55.434 5.8875c-7.2773 0-14.872 4.3988-18.836 10.453-2.1657 3.3078-2.575 8.5989-2.5977 13.148-0.02264 4.5495 0.44141 8.3535 0.44141 8.3535a1 1 0 0 0 1.1133 0.87109 1 1 0 0 0 0.87109-1.1133s-0.44772-3.6931-0.42578-8.1016c0.02194-4.4084 0.61555-9.5353 2.2715-12.064 3.5555-5.4304 10.712-9.5469 17.162-9.5469s13.609 4.1164 17.164 9.5469c1.6559 2.5292 2.2476 7.656 2.2695 12.064 0.02194 4.4084-0.42578 8.1016-0.42578 8.1016a1 1 0 0 0 0.87109 1.1133 1 1 0 0 0 1.1133-0.87109s0.46405-3.804 0.44141-8.3535-0.42998-9.8407-2.5957-13.148c-3.964-6.0544-11.561-10.453-18.838-10.453z" color="#000000" fill="#e6e9f0" stroke="#622b83" stroke-linecap="round" stroke-width=".2"/>
</svg>
