<?xml version="1.0" encoding="UTF-8"?>
<svg width="720mm" height="110mm" version="1.1" viewBox="0 0 720 110" xmlns="http://www.w3.org/2000/svg">
 <g transform="translate(-1.0583 33.428)">
  <g transform="translate(0 -33.48)" fill="none" stroke="#000" stroke-linecap="round" stroke-linejoin="round" stroke-width="1.0583">
   <g transform="translate(-8.5874,25.925)">
    <path d="m81.153-8.5377c-1.0904-1.6536-2.5141-3.1842-4.1501-4.5124 0.36069 0.45038 0.69812 0.91181 1.0072 1.3839 0.53131 0.81151 0.9525 1.8917 1.2811 3.1285z"/>
    <path d="m60.846-23.212c-7.2771 2.09e-4 -14.872 4.3987-18.836 10.453-0.78046 1.192-1.3319 2.6423-1.7203 4.222h2.112c0.32881-1.237 0.75068-2.317 1.2821-3.1285 3.5555-5.4304 10.712-9.5467 17.162-9.5467 2.4905 0 5.086 0.61598 7.5396 1.6821 3.6021 0.81855 7.087 2.5873 9.972 4.9718-4.1884-5.1064-10.978-8.6532-17.512-8.6532z"/>
   </g>
   <g transform="translate(142.29 -.39067)">
    <path d="m-108.15 26.039c0.21084-2.9786 0.7195-5.9551 1.866-8.26h-13.002v9.9999z"/>
    <path d="m-68.73 19.879c-0.26974-0.79024-0.58704-1.4879-0.95808-2.0547-0.01013-0.01548-0.02133-0.03053-0.03152-0.04599h-34.263c-0.0102 0.01545-0.0214 0.03051-0.0315 0.04599-1.147 1.7515-1.7836 4.7497-2.0743 7.892z"/>
    <path d="m-67.418 17.779c0.27751 0.55798 0.51792 1.155 0.72554 1.7823l11.407-1.7823z"/>
   </g>
   <path d="m34.044 27.388c0.02088-0.577 0.05079-1.158 0.09198-1.7399l-11.135 1.7399z"/>
   <path d="m74.812 27.388c-0.13154-2.8195-0.50954-5.7146-1.2552-7.8993l-37.358 5.8374c-0.06332 0.68449-0.10896 1.3751-0.14108 2.0619z"/>
   <path d="m75.594 19.17c0.81741 2.4699 1.1294 5.4022 1.2309 8.2176h10.175v-9.9999z"/>
   <path d="m23 27.388-8 1e-6 8-10z" stop-color="#000000"/>
   <path d="m87 27.388 8 1e-6 -8-10z" stop-color="#000000"/>
   <path d="m15 27.388 5-1e-6 -5 70-10 10z" stop-color="#000000"/>
   <path d="m105 107.39h-100l10-10h80z" stop-color="#000000"/>
   <path d="m95 27.388 10 80-10-10-5-70z" stop-color="#000000"/>
   <g transform="translate(109.26,-95.139)">
    <path d="m-19.255 122.53-12.648 11.805c0.72026 0.92932 2.1928 2.8147 2.1928 2.8147l5.5252 11.05-0.77825 3.1776c0.42416 2.0234 0.63804 4.0852 0.63821 6.1526-0.0061 15.834-12.316 28.937-28.119 29.929-0.58335 0.0389-1.1677 0.0608-1.7523 0.0656-0.04306 2e-3 -0.08612 3e-3 -0.12919 5e-3 -0.0665-2e-3 -0.13299-4e-3 -0.19947-7e-3 -0.5522-5e-3 -1.1041-0.0261-1.6552-0.062-0.26605-0.0166-0.53186-0.0368-0.79737-0.0605-0.40136-0.0371-0.80194-0.0822-1.2015-0.1354-0.46152-0.0606-0.92156-0.13193-1.3798-0.21393-0.3056-0.053-0.61035-0.11069-0.91416-0.17312-0.36724-0.0772-0.733-0.16127-1.0971-0.25218-0.195-0.0502-0.38948-0.10243-0.58343-0.15658-0.75364-0.20373-1.499-0.43679-2.2345-0.69867-0.08868-0.0306-0.17722-0.0616-0.26562-0.093-0.44346-0.16305-0.883-0.33656-1.3183-0.52038-0.02189-0.01-0.04376-0.0192-0.06563-0.0289-4.3766-1.8636-8.2474-4.7412-11.293-8.3954l-16.925 15.796h80z"/>
    <g transform="translate(28.556,223.38)">
     <path d="m-63.315-91.165c0.11446-1.0937 0.38748-4.0615 0.37-7.5794-0.0034-0.68984-0.0231-1.3981-0.05633-2.1105h-38.755c-0.0333 0.71238-0.0529 1.4206-0.0563 2.1105-0.0219 4.4085 0.42582 8.1013 0.42582 8.1013a1 1 0 0 1-0.87075 1.1136 1 1 0 0 1-1.1136-0.87126s-0.46391-3.804-0.44131-8.3535c3e-3 -0.68619 0.0172-1.39 0.0429-2.1006h-14.043l-5.0002 70 16.925-15.797a30 30 0 0 1-6.9949-19.202 30 30 0 0 1 8.2812-20.678 30 30 0 0 1 1.1002-1.0997 30 30 0 0 1 0.44545-0.41289 30 30 0 0 1 1.1808-1.0165 30 30 0 0 1 10.509-5.5562 30 30 0 0 1 1.2035-0.32246 30 30 0 0 1 1.3643-0.30541v-0.0011a30 30 0 0 1 0.89348-0.16847 30 30 0 0 1 0.94723-0.14831 30 30 0 0 1 1.7312-0.19534 30 30 0 0 1 0.14573-0.01241 30 30 0 0 1 0.02739-0.0031l-0.0011 0.0021a30 30 0 0 1 0.0031 0l5.29e-4 -0.0011a30 30 0 0 1 1.6077-0.06046l-5.29e-4 0.0011a30 30 0 0 1 0.56017-0.0217l-5.29e-4 -5.29e-4a30 30 0 0 1 4.8328 0.39429 30 30 0 0 1 2.3415 0.47852 30 30 0 0 1 0.0047 5.29e-4 30 30 0 0 1 0.0062 0.0021 30 30 0 0 1 2.2298 0.64286 30 30 0 0 1 0.13281 0.04444 30 30 0 0 1 4.4581 1.9084l2.404 0.15916h5.29e-4z"/>
     <path d="m-60.988-100.86c0.02564 0.71057 0.03948 1.4145 0.04289 2.1006 0.02265 4.5495-0.44132 8.3535-0.44132 8.3535a1 1 0 0 1-0.03565 0.12402 1 1 0 0 0 0.0011-0.0021l0.96015 1.2294 12.648-11.805z"/>
    </g>
    <g transform="translate(-26.347,-159.93)">
     <path d="m-27.957 287.43a30 30 0 0 0-0.56018 0.0212l-3.8401 12.955-1.0242 3.4551 6.6761-16.381a30 30 0 0 0-1.2521-0.0512zm-8.9586 1.4087a30 30 0 0 0-9.6273 5.0788l10.178 3.2174v-6e-3l-0.54673-8.2429zm0.55036 8.2961h-3e-3zm0 0-13.618-0.0279a30 30 0 0 0-7.9726 20.321 30 30 0 0 0 15.638 26.316l15.403-19.596 7.5365-9.588-28.229 23.427 0.03-1.1488 0.70229-27.147v-8e-3l13.482-5.8141zm-13.618-0.0279h-0.0289zm32.66-7.7024 0.41341 0.58084 0.54108 0.75965 3e-3 -3e-3 -4e-3 -3e-3 2.4107 0.15918h9e-3a30 30 0 0 0-3.3724-1.496zm0.95655 1.3384v7e-3h0.0156zm2.4174 0.15814 4e-3 3e-3a30 30 0 0 1 5.2886 3.5605l7e-3 5e-3 5.2958 2.5569-8.1933-5.9676zm5.3015 3.5708 9e-3 0.01 8e-3 4e-3a30 30 0 0 0-0.0169-0.014zm0.0175 0.0145a30 30 0 0 1 10.036 16.79l0.77775-3.1765-5.5258-11.053-4e-3 -0.0164-0.01 3e-3zm-6.827 6.0187m-0.0114 3e-3 -5.3015 0.99322-12.595 2.3756 13.939 10.601 0.0703 0.0532 3e-3 3e-3zm16.874 10.769-0.59584 2.4355 3e-3 5e-3 -3e-3 -3e-3v5e-3l-20.16 0.81235-3e-3 3e-3v4e-3h3e-3v-4e-3l4.4328 26.33 0.55396 3.2908-8e-3 0.0222a30 30 0 0 0 16.42-26.748 30 30 0 0 0-0.6382-6.1536zm-20.761 3.2639-3e-3 3e-3 -6.2322 32.788-9e-3 6e-3a30 30 0 0 0 7.1474-1.4536l-7e-3 -0.0161a30 30 0 0 1-0.0279 0.0103z"/>
     <g transform="translate(171.9,155.07)">
      <path d="m-218.49 138.87a30 30 0 0 0-3.4463 3.1967l13.647 0.0279z" stop-color="#000000"/>
      <path d="m-200.44 132.41a30 30 0 0 0-1.6076 0.0605l-6.2399 9.6211 2.9781 6.7484z" stop-color="#000000"/>
      <path d="m-191.28 159.49-22.962 29.214a30 30 0 0 0 14.365 3.6835 30 30 0 0 0 2.3632-0.0977z" stop-color="#000000"/>
      <path d="m-198.62 132.42-6.6926 16.423 17.02-13.138-0.97978-1.3761a30 30 0 0 0-9.3472-1.9089z" stop-color="#000000"/>
      <path d="m-218.8 154.65 27.521 4.8492-28.253 23.447z" fill-opacity=".99455" stop-color="#000000"/>
      <path d="m-205.31 148.84 14.032 10.652-27.521-4.8492z" stop-color="#000000"/>
      <path d="m-202.05 132.47a30 30 0 0 0-3.745 0.52762l-2.4955 9.094z" stop-color="#000000"/>
      <path d="m-187.39 145.46 16.274 13.216-20.161 0.81641z" stop-color="#000000"/>
      <path d="m-188.29 135.71 13.017 6.2862-12.117 3.4711z" stop-color="#000000"/>
      <path d="m-205.31 148.84 17.019-13.137 0.9003 9.7573z" stop-color="#000000"/>
      <path d="m-175.27 141.99 4.1571 16.687-16.274-13.216z" stop-color="#000000"/>
      <path d="m-183.47 136.02 8.1931 5.9676-13.017-6.2862z" stop-color="#000000"/>
      <path d="m-169.74 153.06-1.3761 5.6194-4.1571-16.687z" fill-opacity=".99728" stop-color="#000000"/>
      <path d="m-205.79 133a30 30 0 0 0-3.052 0.76843l0.55656 8.3256z" fill-opacity=".99608" stop-color="#000000"/>
      <path d="m-191.28 159.49 0.8692 31.346a30 30 0 0 0 4.1186-1.7203z" stop-color="#000000"/>
      <path d="m-178.42 137.96a1 1 0 0 1-1.0774 0.74724 1 1 0 0 1-0.87127-1.1131s0.0276-0.24509 0.0563-0.51987l-3.16-1.0599 8.1933 5.9676z"/>
     </g>
    </g>
   </g>
   <path d="m55.434 5.8875c-7.2773 0-14.872 4.3988-18.836 10.453-2.1657 3.3078-2.575 8.5989-2.5977 13.148-0.02264 4.5495 0.44141 8.3535 0.44141 8.3535a1 1 0 0 0 1.1133 0.87109 1 1 0 0 0 0.87109-1.1133s-0.44772-3.6931-0.42578-8.1016c0.02194-4.4084 0.61555-9.5353 2.2715-12.064 3.5555-5.4304 10.712-9.5469 17.162-9.5469s13.609 4.1164 17.164 9.5469c1.6559 2.5292 2.2476 7.656 2.2695 12.064 0.02194 4.4084-0.42578 8.1016-0.42578 8.1016a1 1 0 0 0 0.87109 1.1133 1 1 0 0 0 1.1133-0.87109s0.46405-3.804 0.44141-8.3535-0.42998-9.8407-2.5957-13.148c-3.964-6.0544-11.561-10.453-18.838-10.453z" color="#000000"/>
  </g>
  <g transform="matrix(1.847 0 0 1.847 -136.24 -12.466)" font-family="FreeSans" font-size="57.301px">
   <text x="135.69318" y="40.002701" stroke-width=".26458" style="line-height:1.25" xml:space="preserve"><tspan x="135.69318" y="40.002701" font-family="'Poiret One'" font-size="57.301px" stroke-width=".26458">GeoData</tspan></text>
   <text x="340.14963" y="40.117302" stroke-width=".26458" style="line-height:1.25" xml:space="preserve"><tspan x="340.14963" y="40.117302" font-family="Play" font-size="57.301px" stroke-width=".26458">Mart</tspan></text>
  </g>
 </g>
</svg>
